<?xml version="1.0" encoding="UTF-8"?>
<svg width="1024" height="1024" viewBox="0 0 1024 1024" xmlns="http://www.w3.org/2000/svg">
    <path fill="#000000" fill-rule="evenodd" stroke="none" d="M 512 451 C 488.481903 454.529053 463.017395 469.859436 451 490 C 438.982605 510.140564 427.767181 545.434814 449 562 C 469.884613 578.293457 518.887268 577.938416 547 560 C 572.68042 543.613586 596.528076 506.578186 583 476 C 572.182007 451.547546 538.88623 446.965515 512 451 Z"/>
    <path fill="#000000" fill-rule="evenodd" stroke="none" d="M 270 325 C 262.800415 320.244568 297.171173 272.554932 494 250 C 652.320435 231.857788 769.146851 251.654846 850 277 C 930.853149 302.345154 966.661438 345.583557 970 370 C 976.049072 414.239319 934.462585 421.995728 935 436 C 935.537415 450.004272 981.574585 466.644836 982 494 C 982.425415 521.355164 931.059204 582.442139 838 600 C 744.940796 617.557861 617.833374 620.882324 578 597 C 559.994385 586.204651 623.300659 593.936401 673 580 C 804.447205 543.140442 804.740967 500.615601 804 474 C 803.448853 454.202515 770.372009 429.325562 770 422 C 768.338745 389.286804 812.357544 390.549988 810 360 C 807.108643 322.531799 692.27948 282.157043 587 279 C 371.745422 272.545105 274.82373 328.186157 270 325 Z"/>
    <path fill="#000000" fill-rule="evenodd" stroke="none" d="M 754.134033 699.004883 C 761.333618 703.760254 726.96283 751.449951 530.134033 774.004883 C 371.813599 792.147095 254.987167 772.350037 174.134018 747.004883 C 93.280876 721.659668 57.472588 678.421265 54.134026 654.004883 C 48.084953 609.765564 89.67144 602.009155 89.134026 588.004883 C 88.596611 574.00061 42.559441 557.360046 42.134026 530.004883 C 41.708611 502.649719 93.074821 441.562744 186.134018 424.004883 C 279.193237 406.447021 406.300659 403.122559 446.134033 427.004883 C 464.139648 437.800232 400.833374 430.068481 351.134033 444.004883 C 219.686813 480.864441 219.393051 523.389282 220.134018 550.004883 C 220.685165 569.802368 253.762009 594.679321 254.134018 602.004883 C 255.795273 634.718079 211.776474 633.454895 214.134018 664.004883 C 217.025375 701.473022 331.854553 741.847778 437.134033 745.004883 C 652.388611 751.459717 749.310303 695.818726 754.134033 699.004883 Z"/>
    <path fill="#000000" fill-rule="evenodd" stroke="none" d="M 588 360 C 578.03479 361.499817 561.26178 369.401794 560 381 C 558.488525 394.893677 565.922729 402.110962 580 402 C 594.077271 401.889038 609.936707 393.006775 612 380 C 614.063293 366.993225 606.795593 357.171143 588 360 Z"/>
    <path fill="#000000" fill-rule="evenodd" stroke="none" d="M 437 621 C 427.03479 622.499817 410.018066 634.177246 410 646 C 409.985901 655.219543 413.326355 663.950012 431 664 C 445.077637 664.039795 461.936707 653.006775 464 640 C 466.063293 626.993225 455.795593 618.171143 437 621 Z"/>
</svg>
